<?xml version="1.0" standalone="no"?>
<!DOCTYPE svg PUBLIC "-//W3C//DTD SVG 20010904//EN"
 "http://www.w3.org/TR/2001/REC-SVG-20010904/DTD/svg10.dtd">
<svg version="1.0" xmlns="http://www.w3.org/2000/svg"
 width="400.000000pt" height="378.000000pt" viewBox="0 0 400.000000 378.000000"
 preserveAspectRatio="xMidYMid meet">

<g transform="translate(0.000000,378.000000) scale(0.100000,-0.100000)"
fill="#000000" stroke="none">
<path d="M1848 3609 c-64 -5 -148 -16 -185 -24 -37 -9 -90 -19 -118 -24 -58
-8 -245 -85 -253 -104 -2 -4 -7 -5 -12 -2 -12 7 -100 -32 -100 -45 0 -6 -17
-18 -37 -27 -21 -8 -45 -21 -53 -29 -8 -7 -60 -51 -115 -96 -141 -118 -177
-158 -140 -158 25 0 18 -13 -45 -86 -179 -205 -304 -463 -363 -749 -30 -149
-30 -427 1 -583 114 -568 504 -1019 1043 -1207 130 -45 327 -84 443 -87 61 -2
91 -7 94 -15 5 -16 -36 -17 -74 -3 -15 6 -35 8 -46 4 -18 -5 -18 -7 -4 -23 20
-22 172 -36 214 -20 15 6 53 13 86 15 32 2 64 8 70 13 11 9 33 13 152 28 33 5
72 16 87 26 14 9 38 17 52 17 14 0 38 9 53 20 15 11 46 23 67 26 71 10 79 13
134 54 29 22 58 40 63 40 6 0 30 16 54 35 23 19 46 35 51 36 4 0 31 27 58 60
28 33 68 73 90 89 53 38 165 150 165 164 0 8 63 101 74 108 5 3 22 30 37 60
119 228 164 335 180 428 5 25 16 83 25 130 23 114 27 398 8 497 -8 40 -14 89
-14 109 0 20 -6 48 -14 62 -8 15 -31 81 -52 147 -21 67 -64 169 -96 229 -32
61 -58 113 -58 117 0 5 -6 12 -13 16 -7 4 -39 49 -72 98 -32 50 -63 92 -69 94
-5 2 -28 25 -50 50 -57 63 -97 101 -145 136 -23 17 -58 45 -78 63 -20 17 -41
32 -48 32 -6 0 -20 9 -30 20 -10 11 -22 20 -26 20 -5 0 -43 20 -85 45 -41 25
-80 45 -85 45 -7 0 -76 29 -120 51 -68 33 -245 79 -319 82 -19 1 -40 5 -45 9
-19 12 -218 16 -337 7z m418 -594 c6 -15 -12 -45 -27 -45 -4 0 -14 7 -22 15
-9 9 -41 15 -88 18 l-74 3 77 2 c42 1 80 7 83 12 10 15 45 12 51 -5z m-267
-29 c17 -20 2 -48 -23 -44 -24 3 -34 37 -14 49 18 12 24 11 37 -5z m169 -29
c4 -22 -23 -33 -51 -19 -12 6 -35 13 -52 15 -27 4 -26 4 7 6 20 0 40 6 43 12
10 16 49 6 53 -14z m180 -94 c12 -24 4 -43 -17 -43 -27 0 -42 20 -30 42 12 23
36 23 47 1z m-240 -20 c-11 -3 -18 -14 -18 -29 0 -30 -26 -42 -46 -22 -20 20
-8 46 24 51 38 6 61 6 40 0z m140 0 c-21 -2 -57 -2 -80 0 -24 2 -7 4 37 4 44
0 63 -2 43 -4z m-540 -32 c20 -12 10 -46 -14 -49 -25 -4 -40 24 -23 44 13 16
19 17 37 5z m227 -41 c-32 -33 -46 -40 -76 -40 -21 0 -41 -4 -44 -10 -10 -15
-45 -12 -51 5 -4 8 -1 22 6 30 11 14 15 14 36 0 41 -26 86 -19 124 20 19 19
36 35 39 35 3 0 -13 -18 -34 -40z m-140 -439 c46 -20 120 -90 130 -122 5 -14
-6 -40 -34 -82 -72 -108 -59 -102 -135 -62 -104 54 -172 44 -248 -37 -87 -92
-134 -254 -126 -440 8 -183 60 -269 176 -291 66 -13 130 34 162 120 11 30 20
66 20 81 l0 28 -65 -4 -65 -4 0 101 c0 72 4 103 13 106 12 4 290 23 295 20 6
-4 27 -727 21 -731 -4 -2 -39 -7 -78 -10 l-71 -7 0 89 0 89 -25 -37 c-55 -81
-214 -120 -340 -83 -118 34 -221 177 -260 360 -22 102 -23 311 -2 416 33 163
109 311 205 402 121 112 301 154 427 98z m705 -52 c107 -24 175 -100 200 -222
21 -103 -10 -200 -87 -279 -41 -42 -44 -48 -27 -53 95 -31 178 -91 216 -157
68 -115 88 -293 47 -403 -44 -118 -173 -206 -343 -236 -69 -12 -284 -8 -317 6
-13 5 -18 25 -23 78 -10 122 -47 1118 -44 1187 l3 65 75 11 c98 15 243 16 300
3z"/>
<path d="M2345 1963 c4 -76 11 -142 16 -147 11 -13 91 72 114 121 10 20 20 53
22 74 5 31 1 42 -20 63 -22 22 -35 26 -83 26 l-56 0 7 -137z"/>
<path d="M2377 1573 c-2 -5 2 -89 9 -188 7 -99 13 -188 13 -199 1 -16 6 -17
38 -11 82 15 145 65 158 126 19 85 -39 208 -115 245 -52 26 -97 37 -103 27z"/>
<path d="M685 2969 c-4 -11 -5 -23 -2 -25 8 -8 38 27 32 37 -10 15 -23 10 -30
-12z"/>
<path d="M620 1030 c0 -4 8 -15 19 -24 17 -15 19 -15 25 -1 8 23 9 22 -19 27
-14 3 -25 2 -25 -2z"/>
<path d="M680 964 c0 -6 16 -32 36 -58 35 -46 37 -47 55 -30 20 18 19 18 -18
37 -21 11 -46 29 -55 41 -10 11 -18 16 -18 10z"/>
<path d="M825 799 c-5 -6 4 -21 21 -34 36 -29 43 -16 10 19 -16 18 -27 23 -31
15z"/>
<path d="M1270 490 c0 -5 10 -10 23 -10 18 0 19 2 7 10 -19 13 -30 13 -30 0z"/>
<path d="M1607 397 c-3 -9 -16 -12 -39 -9 -22 3 -30 1 -23 -6 6 -5 34 -12 63
-16 47 -6 52 -5 52 13 0 28 -43 43 -53 18z"/>
</g>
</svg>
